<!DOCTYPE svg PUBLIC "-//W3C//DTD SVG 1.1//EN" "http://www.w3.org/Graphics/SVG/1.1/DTD/svg11.dtd">
<!-- Uploaded to: SVG Repo, www.svgrepo.com, Transformed by: SVG Repo Mixer Tools -->
<svg width="64px" height="64px" viewBox="-1.68 -1.68 27.36 27.36" fill="none" xmlns="http://www.w3.org/2000/svg" stroke="#0a0505">
<g id="SVGRepo_bgCarrier" stroke-width="0"/>
<g id="SVGRepo_tracerCarrier" stroke-linecap="round" stroke-linejoin="round" stroke="#CCCCCC" stroke-width="0.192"> <circle cx="12" cy="6" r="4" stroke="#ffffff" stroke-width="0.24000000000000005"/> <path d="M19.9975 18C20 17.8358 20 17.669 20 17.5C20 15.0147 16.4183 13 12 13C7.58172 13 4 15.0147 4 17.5C4 19.9853 4 22 12 22C14.231 22 15.8398 21.8433 17 21.5634" stroke="#ffffff" stroke-width="0.24000000000000005" stroke-linecap="round"/> </g>
<g id="SVGRepo_iconCarrier"> <circle cx="12" cy="6" r="4" stroke="#ffffff" stroke-width="0.24000000000000005"/> <path d="M19.9975 18C20 17.8358 20 17.669 20 17.5C20 15.0147 16.4183 13 12 13C7.58172 13 4 15.0147 4 17.5C4 19.9853 4 22 12 22C14.231 22 15.8398 21.8433 17 21.5634" stroke="#ffffff" stroke-width="0.24000000000000005" stroke-linecap="round"/> </g>
</svg>